# ProBuilder 5.2.3
# https://unity3d.com/unity/features/worldbuilding/probuilder
# 19/12/2024 09:33:21

mtllib ./garland_metric.mtl
o garland_metric

g Cylinder
v 0.04679575 0.1112827 0.1768322
v 0.04679575 0.3112827 0.1768322
v 0.09679575 0.1112827 0.2634347
v 0.09679575 0.3112827 0.2634347
v 0.1967958 0.1112827 0.2634347
v 0.1967958 0.3112827 0.2634347
v 0.2467957 0.1112827 0.1768322
v 0.2467957 0.3112827 0.1768322
v 0.1967957 0.1112827 0.09022965
v 0.1967957 0.3112827 0.09022965
v 0.09679575 0.1112827 0.09022965
v 0.09679575 0.3112827 0.09022965
v 0.1467957 0.1112827 0.1768322
v 0.1467957 0.3112827 0.1768322

vt 0.176539 0.1112827
vt 0.176539 0.3112827
vt 0.2765391 0.1112827
vt 0.2765391 0.3112827
vt 0.09679575 0.1112827
vt 0.09679575 0.3112827
vt 0.1967958 0.1112827
vt 0.1967958 0.3112827
vt -0.1297434 0.1112827
vt -0.1297434 0.3112827
vt -0.02974335 0.1112827
vt -0.02974335 0.3112827
vt -0.2765391 0.1112827
vt -0.2765391 0.3112827
vt -0.176539 0.1112827
vt -0.176539 0.3112827
vt -0.1967957 0.1112827
vt -0.1967957 0.3112827
vt -0.09679575 0.1112827
vt -0.09679575 0.3112827
vt 0.02974329 0.1112827
vt 0.02974329 0.3112827
vt 0.1297433 0.1112827
vt 0.1297433 0.3112827
vt 0.04679575 0.1768322
vt 0.1467957 0.1768322
vt 0.09679575 0.2634347
vt -0.04679575 0.1768322
vt -0.1467957 0.1768322
vt -0.09679575 0.2634347
vt 0.1967958 0.2634347
vt -0.1967958 0.2634347
vt 0.2467957 0.1768322
vt -0.2467957 0.1768322
vt 0.1967957 0.09022965
vt -0.1967957 0.09022965
vt 0.09679575 0.09022965
vt -0.09679575 0.09022965

vn -1 0 6.882552E-08
vn -0.5 0 0.8660254
vn 0.5000001 0 0.8660253
vn 1 0 -1.37651E-07
vn 0.5 0 -0.8660254
vn -0.5 0 -0.8660254
vn 0 -1 0
vn 0 1 0

usemtl Lit
f 1/25/7 13/26/7 3/27/7
f 3/27/7 13/26/7 5/31/7
f 5/31/7 13/26/7 7/33/7
f 7/33/7 13/26/7 9/35/7
f 9/35/7 13/26/7 11/37/7
f 11/37/7 13/26/7 1/25/7
f 4/30/8 14/29/8 2/28/8
f 6/32/8 14/29/8 4/30/8
f 8/34/8 14/29/8 6/32/8
f 10/36/8 14/29/8 8/34/8
f 12/38/8 14/29/8 10/36/8
f 2/28/8 14/29/8 12/38/8
f 4/4/2 2/2/1 1/1/1
f 1/1/1 3/3/2 4/4/2
f 6/8/3 4/6/2 3/5/2
f 3/5/2 5/7/3 6/8/3
f 8/12/4 6/10/3 5/9/3
f 5/9/3 7/11/4 8/12/4
f 10/16/5 8/14/4 7/13/4
f 7/13/4 9/15/5 10/16/5
f 12/20/6 10/18/5 9/17/5
f 9/17/5 11/19/6 12/20/6
f 2/24/1 12/22/6 11/21/6
f 11/21/6 1/23/1 2/24/1

