# ProBuilder 5.2.3
# https://unity3d.com/unity/features/worldbuilding/probuilder
# 19/12/2024 00:47:00

mtllib ./ground_2.mtl
o ground_2

g ground
v 4 -0.5 4
v 3 -0.5 4
v 4 0.5 4
v 3 0.5 4
v -4 -0.5 -3
v -4 -0.5 -4
v -4 0.5 -3
v -4 0.5 -4
v 3 -0.5 -4
v 4 -0.5 -4
v 3 0.5 -4
v 4 0.5 -4
v 4 -0.5 -3
v 4 0.5 -3
v 3 0.5 -3
v 3 -0.5 -3
v 2 -0.5 -3
v 2 -0.5 -4
v 2 0.5 4
v 2 -0.5 4
v 2 0.5 -4
v 2 0.5 -3
v 1 -0.5 -3
v 1 -0.5 -4
v 1 0.5 4
v 1 -0.5 4
v 1 0.5 -4
v 1 0.5 -3
v 5.960464E-08 -0.5 -3
v 5.960464E-08 -0.5 -4
v 5.960464E-08 0.5 4
v 5.960464E-08 -0.5 4
v 5.960464E-08 0.5 -4
v 5.960464E-08 0.5 -3
v -0.9999999 -0.5 -3
v -0.9999999 -0.5 -4
v -0.9999999 0.5 4
v -0.9999999 -0.5 4
v -0.9999999 0.5 -4
v -0.9999999 0.5 -3
v -2 -0.5 -3
v -2 -0.5 -4
v -2 0.5 4
v -2 -0.5 4
v -2 0.5 -4
v -2 0.5 -3
v -3 -0.5 -3
v -3 -0.5 -4
v -3 0.5 4
v -3 -0.5 4
v -3 0.5 -4
v -3 0.5 -3
v -4 0.5 4
v -4 -0.5 4
v 4 -0.5 -2
v 3 -0.5 -2
v 4 0.5 -2
v 2 0.5 -2
v 3 0.5 -2
v 2 -0.5 -2
v 1 0.5 -2
v 1 -0.5 -2
v 5.960464E-08 0.5 -2
v 5.960464E-08 -0.5 -2
v -0.9999999 0.5 -2
v -0.9999999 -0.5 -2
v -2 0.5 -2
v -2 -0.5 -2
v -3 0.5 -2
v -3 -0.5 -2
v -4 0.5 -2
v -4 -0.5 -2
v 4 -0.5 -1
v 3 -0.5 -1
v 4 0.5 -1
v 2 0.5 -1
v 3 0.5 -1
v 2 -0.5 -1
v 1 0.5 -1
v 1 -0.5 -1
v 5.960464E-08 0.5 -1
v 5.960464E-08 -0.5 -1
v -0.9999999 0.5 -1
v -0.9999999 -0.5 -1
v -2 0.5 -1
v -2 -0.5 -1
v -3 0.5 -1
v -3 -0.5 -1
v -4 0.5 -1
v -4 -0.5 -1
v 4 -0.5 0
v 3 -0.5 0
v 4 0.5 0
v 2 0.5 0
v 3 0.5 0
v 2 -0.5 0
v 1 0.5 0
v 1 -0.5 0
v 5.960464E-08 0.5 0
v 5.960464E-08 -0.5 0
v -0.9999999 0.5 0
v -0.9999999 -0.5 0
v -2 0.5 0
v -2 -0.5 0
v -3 0.5 0
v -3 -0.5 0
v -4 0.5 0
v -4 -0.5 0
v 4 -0.5 1
v 3 -0.5 1
v 4 0.5 1
v 2 0.5 1
v 3 0.5 1
v 2 -0.5 1
v 1 0.5 1
v 1 -0.5 1
v 5.960464E-08 0.5 1
v 5.960464E-08 -0.5 1
v -0.9999999 0.5 1
v -0.9999999 -0.5 1
v -2 0.5 1
v -2 -0.5 1
v -3 0.5 1
v -3 -0.5 1
v -4 0.5 1
v -4 -0.5 1
v 4 -0.5 2
v 3 -0.5 2
v 4 0.5 2
v 2 0.5 2
v 3 0.5 2
v 2 -0.5 2
v 1 0.5 2
v 1 -0.5 2
v 5.960464E-08 0.5 2
v 5.960464E-08 -0.5 2
v -0.9999999 0.5 2
v -0.9999999 -0.5 2
v -2 0.5 2
v -2 -0.5 2
v -3 0.5 2
v -3 -0.5 2
v -4 0.5 2
v -4 -0.5 2
v 4 -0.5 3
v 3 -0.5 3
v 4 0.5 3
v 2 0.5 3
v 3 0.5 3
v 2 -0.5 3
v 1 0.5 3
v 1 -0.5 3
v 5.960464E-08 0.5 3
v 5.960464E-08 -0.5 3
v -0.9999999 0.5 3
v -0.9999999 -0.5 3
v -2 0.5 3
v -2 -0.5 3
v -3 0.5 3
v -3 -0.5 3
v -4 0.5 3
v -4 -0.5 3

vt 4 -0.5
vt 3 -0.5
vt 4 0.5
vt 3 0.5
vt -3 -0.5
vt -4 -0.5
vt -3 0.5
vt -4 0.5
vt -4 -3
vt -3 -3
vt -4 -4
vt -3 -4
vt 4 -4
vt 3 -4
vt 4 -3
vt 3 -3
vt 2 -3
vt 2 -4
vt 2 0.5
vt 2 -0.5
vt -2 -0.5
vt -2 0.5
vt -2 -4
vt -2 -3
vt 1 -3
vt 1 -4
vt 1 0.5
vt 1 -0.5
vt -1 -0.5
vt -1 0.5
vt -1 -4
vt -1 -3
vt 0 -3
vt 0 -4
vt 0 0.5
vt 0 -0.5
vt 4 -2
vt 3 -2
vt -2 -2
vt -3 -2
vt -4 -2
vt 2 -2
vt -1 -2
vt 1 -2
vt 0 -2
vt 4 -1
vt 3 -1
vt -2 -1
vt -3 -1
vt -4 -1
vt 2 -1
vt -1 -1
vt 1 -1
vt 0 -1
vt 4 0
vt 3 0
vt -2 0
vt -3 0
vt -4 0
vt 2 0
vt -1 0
vt 1 0
vt 0 0
vt 4 1
vt 3 1
vt -2 1
vt -3 1
vt -4 1
vt 2 1
vt -1 1
vt 1 1
vt 0 1
vt 4 2
vt 3 2
vt -2 2
vt -3 2
vt -4 2
vt 2 2
vt -1 2
vt 1 2
vt 0 2
vt 4 3
vt 3 3
vt -2 3
vt -3 3
vt -4 3
vt 2 3
vt -1 3
vt 1 3
vt 0 3
vt 4 4
vt 3 4
vt -2 4
vt -3 4
vt -4 4
vt 2 4
vt -1 4
vt 1 4
vt 0 4

vn 0 0 1
vn -1 0 0
vn 0 0 -1
vn 1 0 0
vn 0 1 0
vn 0 -1 0

usemtl Collider
f 3/3/1 4/4/1 2/2/1 1/1/1
f 7/7/2 8/8/2 6/6/2 5/5/2
f 11/7/3 12/8/3 10/6/3 9/5/3
f 12/3/4 14/4/4 13/2/4 10/1/4
f 12/11/5 11/12/5 15/10/5 14/9/5
f 13/15/6 16/16/6 9/14/6 10/13/6
f 17/17/6 18/18/6 9/14/6 16/16/6
f 19/19/1 20/20/1 2/2/1 4/4/1
f 18/21/3 21/22/3 11/7/3 9/5/3
f 21/23/5 22/24/5 15/10/5 11/12/5
f 23/25/6 24/26/6 18/18/6 17/17/6
f 25/27/1 26/28/1 20/20/1 19/19/1
f 24/29/3 27/30/3 21/22/3 18/21/3
f 27/31/5 28/32/5 22/24/5 21/23/5
f 29/33/6 30/34/6 24/26/6 23/25/6
f 31/35/1 32/36/1 26/28/1 25/27/1
f 30/36/3 33/35/3 27/30/3 24/29/3
f 33/34/5 34/33/5 28/32/5 27/31/5
f 35/32/6 36/31/6 30/34/6 29/33/6
f 37/30/1 38/29/1 32/36/1 31/35/1
f 36/28/3 39/27/3 33/35/3 30/36/3
f 39/26/5 40/25/5 34/33/5 33/34/5
f 41/24/6 42/23/6 36/31/6 35/32/6
f 43/22/1 44/21/1 38/29/1 37/30/1
f 42/20/3 45/19/3 39/27/3 36/28/3
f 45/18/5 46/17/5 40/25/5 39/26/5
f 47/10/6 48/12/6 42/23/6 41/24/6
f 49/7/1 50/5/1 44/21/1 43/22/1
f 48/2/3 51/4/3 45/19/3 42/20/3
f 51/14/5 52/16/5 46/17/5 45/18/5
f 5/9/6 6/11/6 48/12/6 47/10/6
f 53/8/1 54/6/1 50/5/1 49/7/1
f 6/1/3 8/3/3 51/4/3 48/2/3
f 8/13/5 7/15/5 52/16/5 51/14/5
f 55/37/6 56/38/6 16/16/6 13/15/6
f 57/19/4 55/20/4 13/2/4 14/4/4
f 58/39/5 59/40/5 15/10/5 22/24/5
f 59/40/5 57/41/5 14/9/5 15/10/5
f 56/38/6 60/42/6 17/17/6 16/16/6
f 61/43/5 58/39/5 22/24/5 28/32/5
f 60/42/6 62/44/6 23/25/6 17/17/6
f 63/45/5 61/43/5 28/32/5 34/33/5
f 62/44/6 64/45/6 29/33/6 23/25/6
f 65/44/5 63/45/5 34/33/5 40/25/5
f 64/45/6 66/43/6 35/32/6 29/33/6
f 67/42/5 65/44/5 40/25/5 46/17/5
f 66/43/6 68/39/6 41/24/6 35/32/6
f 69/38/5 67/42/5 46/17/5 52/16/5
f 68/39/6 70/40/6 47/10/6 41/24/6
f 71/37/5 69/38/5 52/16/5 7/15/5
f 70/40/6 72/41/6 5/9/6 47/10/6
f 72/21/2 71/22/2 7/7/2 5/5/2
f 73/46/6 74/47/6 56/38/6 55/37/6
f 75/27/4 73/28/4 55/20/4 57/19/4
f 76/48/5 77/49/5 59/40/5 58/39/5
f 77/49/5 75/50/5 57/41/5 59/40/5
f 74/47/6 78/51/6 60/42/6 56/38/6
f 79/52/5 76/48/5 58/39/5 61/43/5
f 78/51/6 80/53/6 62/44/6 60/42/6
f 81/54/5 79/52/5 61/43/5 63/45/5
f 80/53/6 82/54/6 64/45/6 62/44/6
f 83/53/5 81/54/5 63/45/5 65/44/5
f 82/54/6 84/52/6 66/43/6 64/45/6
f 85/51/5 83/53/5 65/44/5 67/42/5
f 84/52/6 86/48/6 68/39/6 66/43/6
f 87/47/5 85/51/5 67/42/5 69/38/5
f 86/48/6 88/49/6 70/40/6 68/39/6
f 89/46/5 87/47/5 69/38/5 71/37/5
f 88/49/6 90/50/6 72/41/6 70/40/6
f 90/29/2 89/30/2 71/22/2 72/21/2
f 91/55/6 92/56/6 74/47/6 73/46/6
f 93/35/4 91/36/4 73/28/4 75/27/4
f 94/57/5 95/58/5 77/49/5 76/48/5
f 95/58/5 93/59/5 75/50/5 77/49/5
f 92/56/6 96/60/6 78/51/6 74/47/6
f 97/61/5 94/57/5 76/48/5 79/52/5
f 96/60/6 98/62/6 80/53/6 78/51/6
f 99/63/5 97/61/5 79/52/5 81/54/5
f 98/62/6 100/63/6 82/54/6 80/53/6
f 101/62/5 99/63/5 81/54/5 83/53/5
f 100/63/6 102/61/6 84/52/6 82/54/6
f 103/60/5 101/62/5 83/53/5 85/51/5
f 102/61/6 104/57/6 86/48/6 84/52/6
f 105/56/5 103/60/5 85/51/5 87/47/5
f 104/57/6 106/58/6 88/49/6 86/48/6
f 107/55/5 105/56/5 87/47/5 89/46/5
f 106/58/6 108/59/6 90/50/6 88/49/6
f 108/36/2 107/35/2 89/30/2 90/29/2
f 109/64/6 110/65/6 92/56/6 91/55/6
f 111/30/4 109/29/4 91/36/4 93/35/4
f 112/66/5 113/67/5 95/58/5 94/57/5
f 113/67/5 111/68/5 93/59/5 95/58/5
f 110/65/6 114/69/6 96/60/6 92/56/6
f 115/70/5 112/66/5 94/57/5 97/61/5
f 114/69/6 116/71/6 98/62/6 96/60/6
f 117/72/5 115/70/5 97/61/5 99/63/5
f 116/71/6 118/72/6 100/63/6 98/62/6
f 119/71/5 117/72/5 99/63/5 101/62/5
f 118/72/6 120/70/6 102/61/6 100/63/6
f 121/69/5 119/71/5 101/62/5 103/60/5
f 120/70/6 122/66/6 104/57/6 102/61/6
f 123/65/5 121/69/5 103/60/5 105/56/5
f 122/66/6 124/67/6 106/58/6 104/57/6
f 125/64/5 123/65/5 105/56/5 107/55/5
f 124/67/6 126/68/6 108/59/6 106/58/6
f 126/28/2 125/27/2 107/35/2 108/36/2
f 127/73/6 128/74/6 110/65/6 109/64/6
f 129/22/4 127/21/4 109/29/4 111/30/4
f 130/75/5 131/76/5 113/67/5 112/66/5
f 131/76/5 129/77/5 111/68/5 113/67/5
f 128/74/6 132/78/6 114/69/6 110/65/6
f 133/79/5 130/75/5 112/66/5 115/70/5
f 132/78/6 134/80/6 116/71/6 114/69/6
f 135/81/5 133/79/5 115/70/5 117/72/5
f 134/80/6 136/81/6 118/72/6 116/71/6
f 137/80/5 135/81/5 117/72/5 119/71/5
f 136/81/6 138/79/6 120/70/6 118/72/6
f 139/78/5 137/80/5 119/71/5 121/69/5
f 138/79/6 140/75/6 122/66/6 120/70/6
f 141/74/5 139/78/5 121/69/5 123/65/5
f 140/75/6 142/76/6 124/67/6 122/66/6
f 143/73/5 141/74/5 123/65/5 125/64/5
f 142/76/6 144/77/6 126/68/6 124/67/6
f 144/20/2 143/19/2 125/27/2 126/28/2
f 145/82/6 146/83/6 128/74/6 127/73/6
f 147/7/4 145/5/4 127/21/4 129/22/4
f 148/84/5 149/85/5 131/76/5 130/75/5
f 149/85/5 147/86/5 129/77/5 131/76/5
f 146/83/6 150/87/6 132/78/6 128/74/6
f 151/88/5 148/84/5 130/75/5 133/79/5
f 150/87/6 152/89/6 134/80/6 132/78/6
f 153/90/5 151/88/5 133/79/5 135/81/5
f 152/89/6 154/90/6 136/81/6 134/80/6
f 155/89/5 153/90/5 135/81/5 137/80/5
f 154/90/6 156/88/6 138/79/6 136/81/6
f 157/87/5 155/89/5 137/80/5 139/78/5
f 156/88/6 158/84/6 140/75/6 138/79/6
f 159/83/5 157/87/5 139/78/5 141/74/5
f 158/84/6 160/85/6 142/76/6 140/75/6
f 161/82/5 159/83/5 141/74/5 143/73/5
f 160/85/6 162/86/6 144/77/6 142/76/6
f 162/2/2 161/4/2 143/19/2 144/20/2
f 1/91/6 2/92/6 146/83/6 145/82/6
f 3/8/4 1/6/4 145/5/4 147/7/4
f 19/93/5 4/94/5 149/85/5 148/84/5
f 4/94/5 3/95/5 147/86/5 149/85/5
f 2/92/6 20/96/6 150/87/6 146/83/6
f 25/97/5 19/93/5 148/84/5 151/88/5
f 20/96/6 26/98/6 152/89/6 150/87/6
f 31/99/5 25/97/5 151/88/5 153/90/5
f 26/98/6 32/99/6 154/90/6 152/89/6
f 37/98/5 31/99/5 153/90/5 155/89/5
f 32/99/6 38/97/6 156/88/6 154/90/6
f 43/96/5 37/98/5 155/89/5 157/87/5
f 38/97/6 44/93/6 158/84/6 156/88/6
f 49/92/5 43/96/5 157/87/5 159/83/5
f 44/93/6 50/94/6 160/85/6 158/84/6
f 53/91/5 49/92/5 159/83/5 161/82/5
f 50/94/6 54/95/6 162/86/6 160/85/6
f 54/1/2 53/3/2 161/4/2 162/2/2

