# ProBuilder 5.2.3
# https://unity3d.com/unity/features/worldbuilding/probuilder
# 19/12/2024 09:49:51

mtllib ./sapin_metric.mtl
o sapin_metric

g Cone
v -2.796158 0 -1.442817
v -2.097118 0 -2.692333
v -1.398079 3.022122 -1.442817
v -1.398079 0 -1.442817
v -0.6990394 0 -2.692333
v 0 0 -1.442817
v -0.6990396 0 -0.1933005
v -2.097118 0 -0.1933005

vt 2.796158 0
vt 0 0
vt 1.398079 3.872608
vt -2.796158 -1.442817
vt -2.097118 -2.692333
vt -1.398079 -1.442817
vt -0.6990394 -2.692333
vt 0 -1.442817
vt -0.6990396 -0.1933005
vt -2.097118 -0.1933005

vn -0.9075873 0.4198635 0
vn -0.4579372 0.4280638 -0.7791374
vn 5.270894E-08 1 1.317724E-08
vn 0 -1 0
vn 0.4579373 0.4280637 -0.7791373
vn 0.9075873 0.4198634 5.013587E-08
vn 0.4579372 0.4280637 0.7791373
vn -0.4579372 0.4280638 0.7791373

usemtl Lit
f 3/3/3 2/2/2 1/1/1
f 1/4/4 2/5/4 4/6/4
f 3/3/3 5/2/5 2/1/2
f 2/5/4 5/7/4 4/6/4
f 3/3/3 6/2/6 5/1/5
f 5/7/4 6/8/4 4/6/4
f 3/3/3 7/2/7 6/1/6
f 6/8/4 7/9/4 4/6/4
f 3/3/3 8/2/8 7/1/7
f 7/9/4 8/10/4 4/6/4
f 3/3/3 1/2/1 8/1/8
f 8/10/4 1/4/4 4/6/4

