# ProBuilder 5.2.3
# https://unity3d.com/unity/features/worldbuilding/probuilder
# 19/12/2024 00:46:04

mtllib ./SApin_2.mtl
o SApin_2

g Cone
v -1.499202 -2.03839 0
v -0.7496011 -2.03839 -1.30529
v 0 2.62839 0
v 0 -2.03839 0
v 0.7496011 -2.03839 -1.30529
v 1.499202 -2.03839 1.192093E-07
v 0.7496009 -2.03839 1.30529
v -0.7496009 -2.03839 1.30529
v -0.338675 -2.62839 -0.07362747
v -0.338675 -1.669562 -0.07362747
v -0.1876096 -2.62839 0.2342339
v -0.1876096 -1.669562 0.2342339
v 0.1145212 -2.62839 0.2342339
v 0.1145212 -1.669562 0.2342339
v 0.2655866 -2.62839 -0.07362747
v 0.2655866 -1.669562 -0.07362747
v 0.1145211 -2.62839 -0.3814888
v 0.1145211 -1.669562 -0.3814888
v -0.1876096 -2.62839 -0.3814888
v -0.1876096 -1.669562 -0.3814888
v -0.0365442 -2.62839 -0.07362747
v -0.0365442 -1.669562 -0.07362747

vt 2.998405 0
vt 0 0
vt 1.499202 5.340567
vt -1.499202 0
vt -0.7496011 -1.30529
vt 0.7496011 -1.30529
vt 1.499202 1.192093E-07
vt 0.7496009 1.30529
vt -0.7496009 1.30529
vt -0.1330936 -0.1844139
vt -0.1330936 0.7744138
vt 0.2098341 -0.1844139
vt 0.2098341 0.7744138
vt -0.1510654 -0.1844139
vt -0.1510654 0.7744138
vt 0.1510653 -0.1844139
vt 0.1510653 0.7744138
vt -0.2098341 -0.1844139
vt -0.2098341 0.7744138
vt 0.1330937 -0.1844139
vt 0.1330937 0.7744138
vt -0.3021308 0
vt -0.1510653 0.3078615
vt 0.3021308 0
vt 0.1510653 0.3078615
vt 0.1510653 -0.3078615
vt -0.1510654 -0.3078616

vn -0.9520781 0.3058549 5.094913E-08
vn -0.4768796 0.3069653 -0.823625
vn 0 1 1.663729E-07
vn 0 -1 0
vn 0.4768796 0.3069653 -0.823625
vn 0.9520781 0.3058549 6.793217E-08
vn 0.4768795 0.3069652 0.8236251
vn -0.4768795 0.3069653 0.8236251
vn -1 0 0
vn -0.5289059 0 0.8486804
vn 0.528906 0 0.8486803
vn 1 0 -6.639378E-08
vn 0.528906 0 -0.8486804
vn -0.5289059 0 -0.8486804

usemtl Lit
f 3/3/3 2/2/2 1/1/1
f 1/4/4 2/5/4 4/2/4
f 3/3/3 5/2/5 2/1/2
f 2/5/4 5/6/4 4/2/4
f 3/3/3 6/2/6 5/1/5
f 5/6/4 6/7/4 4/2/4
f 3/3/3 7/2/7 6/1/6
f 6/7/4 7/8/4 4/2/4
f 3/3/3 8/2/8 7/1/7
f 7/8/4 8/9/4 4/2/4
f 3/3/3 1/2/1 8/1/8
f 8/9/4 1/4/4 4/2/4
f 9/22/4 21/2/4 11/23/4
f 11/23/4 21/2/4 13/25/4
f 13/25/4 21/2/4 15/24/4
f 15/24/4 21/2/4 17/26/4
f 17/26/4 21/2/4 19/27/4
f 19/27/4 21/2/4 9/22/4
f 12/25/3 22/2/3 10/24/3
f 14/23/3 22/2/3 12/25/3
f 16/22/3 22/2/3 14/23/3
f 18/27/3 22/2/3 16/22/3
f 20/26/3 22/2/3 18/27/3
f 10/24/3 22/2/3 20/26/3
f 12/13/10 10/11/9 9/10/9
f 9/10/9 11/12/10 12/13/10
f 14/17/11 12/15/10 11/14/10
f 11/14/10 13/16/11 14/17/11
f 16/21/12 14/19/11 13/18/11
f 13/18/11 15/20/12 16/21/12
f 18/13/13 16/11/12 15/10/12
f 15/10/12 17/12/13 18/13/13
f 20/17/14 18/15/13 17/14/13
f 17/14/13 19/16/14 20/17/14
f 10/21/9 20/19/14 19/18/14
f 19/18/14 9/20/9 10/21/9

